<mxfile host="app.diagrams.net" modified="2024-01-22T14:07:20.072Z" agent="Mozilla/5.0 (Macintosh; Intel Mac OS X 10_15_7) AppleWebKit/537.36 (KHTML, like Gecko) Chrome/120.0.0.0 Safari/537.36" etag="_PlwtMFcjjGP0QxHQZTX" version="22.1.21" type="device">
  <diagram name="Page-1" id="VUl8XLlqUB6xemB4lQbv">
    <mxGraphModel dx="2483" dy="1033" grid="1" gridSize="10" guides="1" tooltips="1" connect="1" arrows="1" fold="1" page="1" pageScale="1" pageWidth="850" pageHeight="1100" math="0" shadow="0">
      <root>
        <mxCell id="0" />
        <mxCell id="1" parent="0" />
        <mxCell id="DJQC2RDwO1SS9-1ErAOI-1" value="" style="shape=image;verticalLabelPosition=bottom;labelBackgroundColor=default;verticalAlign=top;aspect=fixed;imageAspect=0;image=https://docs.konghq.com/assets/images/products/gateway/getting-started-guide/route-and-service.png;" vertex="1" parent="1">
          <mxGeometry x="-160" y="240" width="1200" height="266" as="geometry" />
        </mxCell>
        <mxCell id="DJQC2RDwO1SS9-1ErAOI-2" value="" style="rounded=0;whiteSpace=wrap;html=1;strokeColor=none;" vertex="1" parent="1">
          <mxGeometry x="-110" y="400" width="120" height="60" as="geometry" />
        </mxCell>
        <mxCell id="DJQC2RDwO1SS9-1ErAOI-3" value="&lt;font size=&quot;1&quot; style=&quot;&quot; face=&quot;Ubuntu&quot;&gt;&lt;b style=&quot;font-size: 25px;&quot;&gt;Nginx&lt;/b&gt;&lt;/font&gt;" style="text;html=1;strokeColor=none;fillColor=none;align=center;verticalAlign=middle;whiteSpace=wrap;rounded=0;" vertex="1" parent="1">
          <mxGeometry x="-90" y="407.5" width="80" height="45" as="geometry" />
        </mxCell>
        <mxCell id="DJQC2RDwO1SS9-1ErAOI-4" value="&lt;font size=&quot;1&quot; style=&quot;&quot; face=&quot;Ubuntu&quot;&gt;&lt;b style=&quot;font-size: 25px;&quot;&gt;HTTP&lt;/b&gt;&lt;/font&gt;" style="text;html=1;strokeColor=none;fillColor=none;align=center;verticalAlign=middle;whiteSpace=wrap;rounded=0;" vertex="1" parent="1">
          <mxGeometry x="90" y="407.5" width="80" height="45" as="geometry" />
        </mxCell>
        <mxCell id="DJQC2RDwO1SS9-1ErAOI-5" value="" style="endArrow=classic;html=1;rounded=0;strokeWidth=3;strokeColor=#808080;" edge="1" parent="1">
          <mxGeometry width="50" height="50" relative="1" as="geometry">
            <mxPoint x="-340" y="400" as="sourcePoint" />
            <mxPoint x="-180" y="400" as="targetPoint" />
          </mxGeometry>
        </mxCell>
        <mxCell id="DJQC2RDwO1SS9-1ErAOI-6" value="" style="endArrow=classic;html=1;rounded=0;strokeWidth=3;strokeColor=#808080;" edge="1" parent="1">
          <mxGeometry width="50" height="50" relative="1" as="geometry">
            <mxPoint x="-180" y="460" as="sourcePoint" />
            <mxPoint x="-340" y="460" as="targetPoint" />
          </mxGeometry>
        </mxCell>
        <mxCell id="DJQC2RDwO1SS9-1ErAOI-7" value="&lt;font size=&quot;1&quot; style=&quot;&quot; face=&quot;Ubuntu&quot;&gt;&lt;b style=&quot;font-size: 25px;&quot;&gt;HTTPS&lt;/b&gt;&lt;/font&gt;" style="text;html=1;strokeColor=none;fillColor=none;align=center;verticalAlign=middle;whiteSpace=wrap;rounded=0;" vertex="1" parent="1">
          <mxGeometry x="-300" y="407.5" width="80" height="45" as="geometry" />
        </mxCell>
        <mxCell id="DJQC2RDwO1SS9-1ErAOI-9" value="&lt;font style=&quot;font-size: 30px;&quot; face=&quot;Ubuntu&quot;&gt;&lt;b&gt;EC2 Instance&lt;/b&gt;&lt;/font&gt;" style="points=[[0,0],[0.25,0],[0.5,0],[0.75,0],[1,0],[1,0.25],[1,0.5],[1,0.75],[1,1],[0.75,1],[0.5,1],[0.25,1],[0,1],[0,0.75],[0,0.5],[0,0.25]];outlineConnect=0;gradientColor=none;html=1;whiteSpace=wrap;fontSize=12;fontStyle=0;container=1;pointerEvents=0;collapsible=0;recursiveResize=0;shape=mxgraph.aws4.group;grIcon=mxgraph.aws4.group_ec2_instance_contents;strokeColor=#D86613;fillColor=none;verticalAlign=top;align=left;spacingLeft=30;fontColor=#D86613;dashed=0;strokeWidth=4;" vertex="1" parent="1">
          <mxGeometry x="-210" y="180" width="910" height="360" as="geometry" />
        </mxCell>
      </root>
    </mxGraphModel>
  </diagram>
</mxfile>
